<?xml version="1.0" encoding="UTF-8"?>
<svg version="1.1" xmlns="http://www.w3.org/2000/svg" width="500" height="500">
<path d="M0 0 C0.87907013 0.00248749 1.75814026 0.00497498 2.66384888 0.00753784 C15.71806612 0.06459882 28.48171927 0.33406739 41.25 3.3125 C42.67844238 3.64314453 42.67844238 3.64314453 44.13574219 3.98046875 C99.16237535 17.19105455 143.93530903 50.42166185 173.51171875 98.35742188 C185.15845606 117.58349747 192.42578951 138.4266651 197.25 160.3125 C197.42789062 161.07369141 197.60578125 161.83488281 197.7890625 162.61914062 C203.65555737 188.57605245 202.28357711 219.58599759 196.25 245.3125 C196.04632813 246.19776367 195.84265625 247.08302734 195.6328125 247.99511719 C182.67370084 302.33139245 147.49377945 345.26022783 100.859375 374.43359375 C83.45115962 384.81779665 63.80384656 392.08019621 44.0625 396.5625 C43.39919678 396.71364258 42.73589355 396.86478516 42.05249023 397.02050781 C28.24175037 399.95945714 14.68727142 400.68823721 0.625 400.625 C-0.25906525 400.62251251 -1.14313049 400.62002502 -2.0539856 400.61746216 C-31.30821727 400.49016778 -58.12699136 394.73130763 -84.75 382.3125 C-85.43320313 382.00231934 -86.11640625 381.69213867 -86.8203125 381.37255859 C-102.46700128 374.23262411 -116.82436847 364.64314174 -129.75 353.3125 C-130.575 352.59707031 -131.4 351.88164062 -132.25 351.14453125 C-147.95964781 337.2758578 -160.70521195 322.07944239 -171.75 304.3125 C-172.1610498 303.65362793 -172.57209961 302.99475586 -172.99560547 302.31591797 C-191.72911367 271.77613009 -200.21220834 236.51850132 -200.125 200.9375 C-200.12412384 200.0602124 -200.12324768 199.1829248 -200.12234497 198.27905273 C-199.94020714 142.78310417 -177.18330032 93.22286693 -138.1003418 54.36035156 C-127.72489147 44.29018683 -115.98014401 35.9721005 -103.75 28.3125 C-102.85087891 27.74450684 -102.85087891 27.74450684 -101.93359375 27.16503906 C-85.71651463 17.06876896 -67.27016479 9.86943528 -48.75 5.3125 C-47.7909375 5.04050781 -46.831875 4.76851562 -45.84375 4.48828125 C-30.84558584 0.35572258 -15.45779534 -0.07021188 0 0 Z " fill="#3EB785" transform="translate(249.75,49.6875)"/>
<path d="M0 0 C1.43570444 4.84036221 0.65090168 8.918674 -0.546875 13.69921875 C-0.71874329 14.41608353 -0.89061157 15.1329483 -1.06768799 15.87153625 C-1.43203636 17.37806033 -1.80215641 18.88319904 -2.17773438 20.38696289 C-2.74991915 22.68717499 -3.29796016 24.99222799 -3.84375 27.29882812 C-4.20169647 28.76597426 -4.56102424 30.23278423 -4.921875 31.69921875 C-5.08451843 32.38674728 -5.24716187 33.07427582 -5.41473389 33.78263855 C-6.3027223 37.27159118 -6.97337 39.88390794 -10 42 C-13.125 42.8125 -13.125 42.8125 -17 42 C-20.35486526 38.94381909 -23.19561792 35.5611201 -26 32 C-30.03805866 33.36266644 -32.54368118 35.1409151 -35.625 38.0625 C-39.08420957 41.26660562 -42.58276566 44.34842269 -46.25 47.3125 C-50.5645109 50.80432874 -54.79705528 54.37580835 -59 58 C-64.01299606 62.31951465 -69.08538117 66.55097766 -74.22265625 70.72265625 C-77.34396267 73.28203972 -80.42453424 75.88589916 -83.5 78.5 C-87.44650481 81.85447127 -91.41642072 85.17221829 -95.4375 88.4375 C-99.68392946 91.89274609 -103.85284488 95.42710949 -108 99 C-112.21412212 102.62868445 -116.44772876 106.22554051 -120.75 109.75 C-121.62011719 110.46800781 -122.49023438 111.18601562 -123.38671875 111.92578125 C-125.15926698 113.33269173 -126.97748062 114.68356231 -128.83203125 115.98046875 C-134.95088809 120.36599705 -134.95088809 120.36599705 -137.375 127.25 C-137.42398438 128.05953125 -137.47296875 128.8690625 -137.5234375 129.703125 C-138 132 -138 132 -139.9956665 133.5758667 C-142.99884125 137.20804464 -142.57255281 140.50181747 -142.54589844 145.08300781 C-142.55623611 146.00042755 -142.56657379 146.91784729 -142.57722473 147.86306763 C-142.60670542 150.8932648 -142.60815303 153.92279555 -142.609375 156.953125 C-142.62435307 159.0549243 -142.64107942 161.15671181 -142.65948486 163.25848389 C-142.70321234 168.78882379 -142.72316952 174.31900491 -142.73822021 179.8494873 C-142.75777177 185.49350393 -142.79974399 191.13734858 -142.83984375 196.78125 C-142.91520441 207.8541137 -142.96546049 218.92693901 -143 230 C-141.96359375 229.95359375 -140.9271875 229.9071875 -139.859375 229.859375 C-138.48961221 229.82184725 -137.11981818 229.78544816 -135.75 229.75 C-135.06808594 229.71648437 -134.38617188 229.68296875 -133.68359375 229.6484375 C-130.22234376 229.58122876 -128.35049973 229.74274551 -125.52587891 231.81591797 C-124 234 -124 234 -123.8359375 237.1953125 C-125.4147601 242.35562528 -128.21850468 245.75502927 -131.625 249.875 C-132.53185547 251.00228516 -132.53185547 251.00228516 -133.45703125 252.15234375 C-134.67784653 253.66990304 -135.905404 255.18206321 -137.13964844 256.6887207 C-139.6401841 259.79535733 -142.01769663 262.99135521 -144.38623047 266.19946289 C-146 268 -146 268 -149.5 269.5625 C-157.3989992 268.29301798 -162.83826979 257.34377164 -167.3125 251.1875 C-167.93189453 250.34251953 -168.55128906 249.49753906 -169.18945312 248.62695312 C-176.01556378 239.29571175 -176.01556378 239.29571175 -175.8125 235.4375 C-175 232 -175 232 -172 230 C-169.39754502 229.85778935 -166.90882316 229.81197068 -164.3125 229.875 C-163.61060547 229.88402344 -162.90871094 229.89304687 -162.18554688 229.90234375 C-160.45688475 229.92586296 -158.72839855 229.96173287 -157 230 C-157.0380331 217.83009194 -157.09736034 205.66049208 -157.18390274 193.49082661 C-157.22341796 187.83998258 -157.25558669 182.18929533 -157.27099609 176.53833008 C-157.28613588 171.08517748 -157.32053415 165.63245579 -157.36830902 160.17949486 C-157.38315041 158.09872367 -157.39104259 156.01789098 -157.39188385 153.93706703 C-157.39424692 151.02308798 -157.42127379 148.11030616 -157.45410156 145.1965332 C-157.4490712 144.33554016 -157.44404083 143.47454712 -157.43885803 142.58746338 C-157.5291651 137.40897591 -158.21032923 134.83046621 -162 131 C-163.75845645 127.48308711 -163.68065337 123.82789463 -163 120 C-160.96994709 116.6207427 -158.55205232 113.77602616 -155 112 C-154.31550781 112.04640625 -153.63101563 112.0928125 -152.92578125 112.140625 C-145.56304008 112.44878158 -141.73327149 109.72933175 -136.5 105 C-134.57078583 103.22530674 -132.65684878 101.43664306 -130.75439453 99.63330078 C-128.4077479 97.44862697 -125.94082629 95.43942368 -123.4375 93.4375 C-119.27518204 90.06448085 -115.18636618 86.6180635 -111.125 83.125 C-110.53541504 82.61791504 -109.94583008 82.11083008 -109.33837891 81.58837891 C-108.74847168 81.08097168 -108.15856445 80.57356445 -107.55078125 80.05078125 C-100.28968997 73.80572679 -92.99446571 67.6036885 -85.5625 61.5625 C-80.14143044 57.1485377 -74.84158026 52.60217195 -69.54296875 48.04296875 C-65.13569425 44.2520626 -60.69616878 40.49977617 -56.25390625 36.75 C-53.96529266 34.8180444 -51.68230099 32.87966309 -49.40234375 30.9375 C-48.81203369 30.43549072 -48.22172363 29.93348145 -47.61352539 29.41625977 C-46.482752 28.45444338 -45.35297652 27.49145213 -44.22436523 26.52709961 C-41.87826429 24.53400769 -39.5657677 22.7105118 -37 21 C-38.37088094 17.9987024 -40.00374809 15.70328428 -42.125 13.1875 C-45.18881092 9.22388053 -45.61466713 6.917337 -45 2 C-44.34 2 -43.68 2 -43 2 C-43 1.34 -43 0.68 -43 0 C-38.60837364 -2.19581318 -32.86946828 -1.6744847 -27.98901367 -1.98486328 C-25.83771643 -2.12337642 -23.68751581 -2.27413894 -21.53710938 -2.42578125 C-20.15629927 -2.51637909 -18.77544095 -2.60624553 -17.39453125 -2.6953125 C-16.14518799 -2.77797363 -14.89584473 -2.86063477 -13.60864258 -2.94580078 C-8.41612788 -3.02378862 -4.37514873 -2.91676582 0 0 Z " fill="#BDFC72" transform="translate(400,125)"/>
</svg>
